# xmcd CD database file
#
# Track frame offsets:
#	150
#	15422
#	28775
#	44675
#	63842
#	78441
#	92407
#	101166
#	108228
#	115573
#	131126
#	145584
#	157293
#	173451
#	187138
#	197168
#	205177
#	208886
#	215963
#	225312
#
# Disc length: 3399 seconds
#
# Revision: 1
# Processed by: cddbd v1.5.1PL2 Copyright (c) Steve Scherf et al.
# Submitted via: CDex 1.51
#
DISCID=1c0d4514
DTITLE=sound team j.d.k - Vantage Master(SOURCENEXT selection)
DYEAR=2005
DGENRE=Game
TTITLE0=DATA
TTITLE1=雪原（静かなる純白）
TTITLE2=高地（瞬きを見上げて）
TTITLE3=森（陰と煌めきの群舞）
TTITLE4=岩窟（孤独との戦い）
TTITLE5=砂漠（頂点を夢見て）
TTITLE6=World Map（純粋なる者たち）
TTITLE7=戦闘に勝った（覇者の凱旋）
TTITLE8=戦闘に負けた（仄かな希望の灯）
TTITLE9=道場（時の迷宮）
TTITLE10=海上都市（いにしえの神の都）
TTITLE11=異次元（次元の狭間で）
TTITLE12=火山地帯（危険な予感）
TTITLE13=鍾乳洞（地の底の行軍）
TTITLE14=Title（開闢の時）
TTITLE15=Vantage
TTITLE16=高地 - ビジュアル
TTITLE17=キャラ作成（いざない）
TTITLE18=エンディング1（追憶の脈動）
TTITLE19=そして新たなる道へ
EXTD=YEAR: 2005
EXTT0=
EXTT1=
EXTT2=
EXTT3=
EXTT4=
EXTT5=
EXTT6=
EXTT7=
EXTT8=
EXTT9=
EXTT10=
EXTT11=
EXTT12=
EXTT13=
EXTT14=
EXTT15=
EXTT16=
EXTT17=
EXTT18=
EXTT19=
PLAYORDER=
